<svg width="54" height="50" viewBox="0 0 54 50" fill="none" xmlns="http://www.w3.org/2000/svg">
<path d="M43.8585 15.3157H40.4341V19.2196H43.8585V15.3157Z" fill="#020202"/>
<path d="M54.0001 19.2188H50.5757V23.1227H54.0001V19.2188Z" fill="#020202"/>
<path d="M47.2303 26.8713H43.8586V30.7509H47.2303V26.8713Z" fill="#FF5425"/>
<path d="M6.71674 0H3.42407V3.9039H6.71674V0Z" fill="#BD903A"/>
<path d="M47.2827 19.2191V15.3753V11.5615H43.8583V7.65756H40.434V3.90381H37.1413V7.65756H33.7169V11.5314V15.3152H30.3716H26.9999H23.6282H20.2565H16.8848H13.5131H10.1414H6.76973H3.42438V11.5314V7.68759V3.90381H0V7.68759V11.5314V15.3753V19.2191V23.063V26.8768H3.42438V30.7507V34.5945V38.4384V42.2822V46.126V49.9999H6.71704V46.126V42.2822V38.4384V34.5344H10.1414H13.5131H16.8848H20.2565H23.6282H26.9999V38.4384V42.2822V46.126V49.9999H30.4243V46.126V42.2822V38.4384V34.5344H33.7433H37.1413V30.7807H40.434V26.8768H43.8583H47.23H50.5754V23.063V19.2191H47.2827ZM43.8583 19.2191H40.434V15.3152H43.8583V19.2191Z" fill="#BD903A"/>
<path d="M10.1416 38.4383V42.2822V46.126V49.9999H13.566V46.126V42.2822V38.4383V34.5344H10.1416V38.4383Z" fill="#8C6E26"/>
<path d="M33.7166 34.5344V38.4383V42.2822V46.126V49.9999H37.1409V46.126V42.2822V38.4383V34.5344H33.7166Z" fill="#8C6E26"/>
</svg>
